<svg version="1.1" id="Layer_1" xmlns="http://www.w3.org/2000/svg" xmlns:xlink="http://www.w3.org/1999/xlink" x="0px" y="0px" width="30px" height="18px" viewBox="0 0 792 612" enable-background="new 0 0 792 612" xml:space="preserve">
<g>
	<g transform="translate(0.000000,512.000000) scale(0.100000,-0.100000)">
		<path stroke="#130C0A" stroke-width="6" stroke-miterlimit="10" d="M1148.594,5035.971c-46.88-31.641-57.407-52.69-58.569-106.611
			c0-41.001,7.041-57.402,33.97-85.493l33.965-33.97h178.027h178.032l33.965,33.97c48.042,48.042,48.042,114.81,0,167.505
			l-33.965,38.677l-168.667,3.486C1201.348,5057.026,1174.419,5054.697,1148.594,5035.971z"></path>
		<path stroke="#130C0A" stroke-width="6" stroke-miterlimit="10" d="M1898.296,5035.971c-46.88-31.641-57.407-52.69-58.569-106.611
			c0-41.001,7.036-57.402,33.965-85.493l33.965-33.97h178.032h178.032l33.965,33.97c48.042,48.042,48.042,114.81,0,167.505
			l-33.965,38.677l-168.667,3.486C1951.05,5057.026,1924.121,5054.697,1898.296,5035.971z"></path>
		<path stroke="#130C0A" stroke-width="6" stroke-miterlimit="10" d="M2647.993,5035.971c-46.88-31.641-57.402-52.69-58.569-106.611
			c0-41.001,7.041-57.402,33.97-85.493l33.965-33.97h178.032h178.027l33.97,33.97c48.042,48.042,48.042,114.81,0,167.505
			l-33.97,38.677l-168.667,3.486C2700.747,5057.026,2673.818,5054.697,2647.993,5035.971z"></path>
		<path stroke="#130C0A" stroke-width="6" stroke-miterlimit="10" d="M3397.695,5035.971c-46.88-31.641-57.407-52.69-58.569-106.611
			c0-41.001,7.036-57.402,33.965-85.493l33.97-33.97h178.027h178.032l33.965,33.97c48.042,48.042,48.042,114.81,0,167.505
			l-33.965,38.677l-168.667,3.486C3450.449,5057.026,3423.52,5054.697,3397.695,5035.971z"></path>
		<path stroke="#130C0A" stroke-width="6" stroke-miterlimit="10" d="M4147.392,5035.971
			c-46.875-31.641-57.402-52.69-58.564-106.611c0-41.001,7.031-57.402,33.965-85.493l33.965-33.97h178.027h178.037l33.965,33.97
			c50.361,50.366,48.037,118.296-5.879,172.217l-39.844,39.839h-162.852C4204.804,5055.864,4170.83,5052.373,4147.392,5035.971z"></path>
		<path stroke="#130C0A" stroke-width="6" stroke-miterlimit="10" d="M4897.089,5035.971
			c-46.875-31.641-57.402-52.69-58.564-106.611c0-41.001,7.041-57.402,33.965-85.493l33.965-33.97h178.037h178.027l33.965,33.97
			c50.371,50.366,48.047,118.296-5.879,172.217l-39.834,39.839h-162.852C4954.501,5055.864,4920.537,5052.373,4897.089,5035.971z"></path>
		<path stroke="#130C0A" stroke-width="6" stroke-miterlimit="10" d="M5519.13,4910.634
			c-50.371-28.091-58.564-60.894-59.727-227.236c0-209.668,19.883-248.35,128.818-248.35c38.682,0,56.25,7.041,83.174,33.965
			l33.965,33.97v174.541c0,146.45-3.486,176.87-21.113,197.983C5643.31,4927.036,5574.208,4941.049,5519.13,4910.634z"></path>
		<path stroke="#130C0A" stroke-width="6" stroke-miterlimit="10" d="M1036.172,4670.488c-14.077-5.879-36.294-25.767-50.371-43.33
			c-22.275-28.091-24.6-45.654-24.6-196.821c0-182.744,5.874-202.632,72.642-236.597c49.204-25.767,105.449-12.915,142.905,31.641
			c29.312,35.127,30.474,41.001,30.474,205.02c0,167.5,0,168.667-31.636,203.794
			C1140.395,4672.812,1079.502,4688.051,1036.172,4670.488z"></path>
		<path stroke="#130C0A" stroke-width="6" stroke-miterlimit="10" d="M5519.13,4160.937
			c-50.371-28.096-58.564-60.898-59.727-227.236c0-209.673,19.883-248.35,128.818-248.35c38.682,0,56.25,7.036,83.174,33.965
			l33.965,33.965v174.541c0,146.455-3.486,176.87-21.113,197.983C5643.31,4177.333,5574.208,4191.352,5519.13,4160.937z"></path>
		<path stroke="#130C0A" stroke-width="6" stroke-miterlimit="10" d="M1036.172,3920.786c-14.077-5.874-36.294-25.767-50.371-43.33
			c-22.275-28.091-24.6-45.654-24.6-196.821c0-182.739,5.874-202.632,72.642-236.597c49.204-25.767,105.449-12.915,142.905,31.641
			c29.312,35.127,30.474,41.006,30.474,205.02c0,167.505,0,168.667-31.636,203.794
			C1140.395,3923.11,1079.502,3938.349,1036.172,3920.786z"></path>
		<path stroke="#130C0A" stroke-width="6" stroke-miterlimit="10" d="M2716.557,3658.403
			c-50.366-24.604-72.642-65.61-65.605-119.463c2.324-22.28,340.884-825.835,749.702-1786.372
			C3943.007,481.572,4153.837,0.176,4174.951-18.613c32.803-28.096,96.084-36.299,133.545-16.406
			c11.689,7.041,167.5,175.703,346.758,376.016l326.807,364.326l718.057-718.066l718.066-718.057h52.686h52.695L6775.4-478.965
			c225.039,226.016,251.963,256.494,251.963,290.459c0,21.055-7.041,52.695-16.396,70.254
			c-9.365,17.568-333.848,347.92-720.391,734.463c-387.695,386.543-703.984,706.367-703.984,711.025
			c0,4.648,170.996,158.135,380.732,342.041c338.555,299.883,380.723,339.727,387.695,378.34
			c10.527,56.24-18.721,111.26-73.809,137.09c-111.318,52.754-3494.331,1494.746-3508.408,1494.746
			C2764.599,3679.453,2738.838,3670.093,2716.557,3658.403z M4497.109,2677.915c807.109-344.37,1474.795-631.401,1484.16-637.27
			c14.082-7.041-65.605-83.174-325.645-310.41c-189.775-166.338-353.799-316.279-364.316-332.686
			c-11.689-17.559-21.123-49.199-21.123-71.475c0-45.664-67.93,25.762,839.912-890.283l611.514-616.162l-125.342-126.494
			l-125.332-125.342l-720.391,720.449l-720.439,720.439h-51.533c-62.061,0-66.768-3.486-433.418-413.525
			c-137.031-153.486-254.17-275.273-258.877-269.404c-5.879,7.041-1197.197,2791.46-1274.492,2977.69
			c-3.486,10.527-1.162,14.077,5.874,9.36C3024.638,3308.154,3690.005,3022.29,4497.109,2677.915z"></path>
		<path stroke="#130C0A" stroke-width="6" stroke-miterlimit="10" d="M5519.13,3411.235
			c-50.371-28.091-58.564-60.894-59.727-227.236c0-209.673,19.883-248.35,128.818-248.35c38.682,0,56.25,7.036,83.174,33.965
			l33.965,33.97v175.703v175.703l-36.289,36.294C5629.228,3431.123,5569.501,3439.326,5519.13,3411.235z"></path>
		<path stroke="#130C0A" stroke-width="6" stroke-miterlimit="10" d="M1036.172,3171.084c-14.077-5.874-36.294-25.762-50.371-43.33
			c-22.275-28.086-24.6-45.654-24.6-196.816c0-182.744,5.874-202.632,72.642-236.602c49.204-25.762,105.449-12.91,142.905,31.641
			c29.312,35.132,30.474,41.006,30.474,205.02c0,167.505,0,168.672-31.636,203.799
			C1140.395,3173.413,1079.502,3188.652,1036.172,3171.084z"></path>
		<path stroke="#130C0A" stroke-width="6" stroke-miterlimit="10" d="M1036.172,2420.224c-14.077-4.712-36.294-24.604-50.371-42.168
			c-22.275-28.154-24.6-45.718-24.6-196.821c0-182.739,5.874-202.632,72.642-236.597c49.204-25.762,105.449-12.91,142.905,31.641
			c29.253,35.127,30.474,40.938,30.474,206.123v169.829l-39.839,39.839C1126.377,2433.076,1087.7,2441.274,1036.172,2420.224z"></path>
		<path stroke="#130C0A" stroke-width="6" stroke-miterlimit="10" d="M1036.172,1670.527c-14.077-4.717-36.294-24.609-50.371-42.168
			c-22.275-28.154-24.6-45.723-24.6-196.826c0-182.734,5.874-202.627,72.642-236.592c49.204-25.771,105.449-12.92,142.905,31.641
			c29.312,35.127,30.474,40.996,30.474,206.182v169.824l-39.839,39.844C1126.377,1683.379,1087.7,1691.572,1036.172,1670.527z"></path>
		<path stroke="#130C0A" stroke-width="6" stroke-miterlimit="10" d="M1036.172,920.82c-14.077-4.707-36.294-24.6-50.371-42.168
			c-22.275-28.086-24.6-45.713-24.6-196.816c0-182.744,5.874-202.637,72.642-236.602c49.204-25.762,105.449-12.91,142.905,31.641
			c29.312,35.137,30.474,41.006,30.474,206.182v169.834l-39.839,39.844C1126.377,933.672,1087.7,941.875,1036.172,920.82z"></path>
		<path stroke="#130C0A" stroke-width="6" stroke-miterlimit="10" d="M1036.172,171.123c-14.077-4.717-36.294-24.6-50.371-42.168
			c-22.275-28.086-24.6-45.713-24.6-196.816c0-182.744,5.874-202.637,72.642-236.602c49.204-25.762,105.449-12.91,142.905,31.641
			c29.312,35.127,30.474,41.006,30.474,206.182v169.834l-39.839,39.844C1126.377,183.975,1087.7,192.178,1036.172,171.123z"></path>
		<path stroke="#130C0A" stroke-width="6" stroke-miterlimit="10" d="M1411.02-203.73c-37.456-15.234-74.971-69.092-74.971-107.773
			c0-42.158,28.091-98.408,57.407-114.805c12.91-5.879,98.408-11.689,192.104-11.689c152.266,0,172.217,2.324,199.146,23.438
			c44.492,35.127,60.894,93.701,38.677,144.063c-26.929,66.768-64.443,78.457-237.822,77.295
			C1503.555-193.203,1423.935-197.91,1411.02-203.73z"></path>
		<path stroke="#130C0A" stroke-width="6" stroke-miterlimit="10" d="M2160.718-203.73c-37.451-15.234-74.966-69.092-74.966-107.773
			c0-42.158,28.091-98.408,57.402-114.805c12.915-5.879,98.413-11.689,192.109-11.689c152.266,0,172.217,2.324,199.146,23.438
			c44.492,35.127,60.894,93.701,38.677,144.063c-26.929,66.768-64.443,78.457-237.822,77.295
			C2253.252-193.203,2173.633-197.91,2160.718-203.73z"></path>
		<path stroke="#130C0A" stroke-width="6" stroke-miterlimit="10" d="M2910.42-203.73c-37.456-15.234-74.971-69.092-74.971-107.773
			c0-42.158,28.091-98.408,57.407-114.805c12.915-5.879,98.408-11.689,192.104-11.689c152.266,0,172.217,2.324,199.146,23.438
			c44.492,35.127,60.894,93.701,38.677,144.063c-26.924,66.768-64.443,78.457-237.822,77.295
			C3002.954-193.203,2923.335-197.91,2910.42-203.73z"></path>
		<path stroke="#130C0A" stroke-width="6" stroke-miterlimit="10" d="M3660.122-203.73c-37.456-15.234-74.971-69.092-74.971-107.773
			c0-42.158,28.091-98.408,57.402-114.805c12.915-5.879,98.413-11.689,192.109-11.689c152.26,0,172.212,2.324,199.145,23.438
			c44.492,35.127,60.889,93.701,38.672,144.063c-26.924,66.768-64.434,78.457-237.759,77.295
			C3752.656-193.203,3673.032-197.91,3660.122-203.73z"></path>
	</g>
</g>
</svg>