<?xml version="1.0" encoding="utf-8"?>
<!-- Generator: Adobe Illustrator 16.0.0, SVG Export Plug-In . SVG Version: 6.00 Build 0)  -->
<!DOCTYPE svg PUBLIC "-//W3C//DTD SVG 1.1//EN" "http://www.w3.org/Graphics/SVG/1.1/DTD/svg11.dtd">
<svg version="1.1" id="Layer_1" xmlns:sketch="http://www.bohemiancoding.com/sketch/ns"
	 xmlns="http://www.w3.org/2000/svg" xmlns:xlink="http://www.w3.org/1999/xlink" x="0px" y="0px" width="16px" height="16px"
	 viewBox="0 0 16 16" enable-background="new 0 0 16 16" xml:space="preserve">
<title></title>
<g>
	<path fill="#3B7EC4" d="M8,0C3.582,0,0,3.582,0,8s3.582,8,8,8s8-3.582,8-8S12.418,0,8,0z M6.416,4.403
		c0.069-0.034,0.069-0.068,0.069-0.137C6.451,3.855,6.519,3.478,6.793,3.134c0.274-0.377,0.652-0.548,1.098-0.617
		c0.583-0.103,1.131-0.034,1.612,0.24c0.55,0.342,0.79,0.823,0.722,1.475c0,0.103,0,0.137,0.103,0.206
		c0.238,0.137,0.307,0.412,0.238,0.651c-0.068,0.378-0.206,0.721-0.547,0.961C9.983,6.085,9.949,6.119,9.949,6.188
		c-0.206,0.479-0.48,0.857-0.961,1.097C8.782,7.387,8.576,7.423,8.372,7.423c-0.583,0-0.995-0.275-1.338-0.755
		C6.931,6.53,6.862,6.358,6.793,6.188C6.759,6.119,6.725,6.085,6.656,6.016c-0.343-0.24-0.583-0.824-0.515-1.235
		C6.176,4.609,6.279,4.506,6.416,4.403z M7,7.456c0.068-0.033,0.103,0,0.171,0.069c0.31,0.309,0.653,0.583,1.03,0.79
		c0.103,0.068,0.171,0.068,0.273,0c0.377-0.206,0.721-0.481,1.029-0.79c0.069-0.069,0.274-0.069,0.344,0.034
		c0.034,0.034,0,0.069-0.034,0.103c-0.172,0.274-0.344,0.515-0.55,0.754c-0.72,0.858-1.646,1.475-2.641,1.99
		c-0.103,0.069-0.137,0.035-0.137-0.103c0-0.104,0-0.206,0-0.31c0-0.103-0.069-0.171-0.137-0.171c-0.069,0-0.172,0.068-0.172,0.171
		c0,0.172,0,0.344,0,0.481c0,0.068-0.034,0.103-0.103,0.137c-0.446,0.171-0.892,0.343-1.337,0.445c0,0.034-0.034,0.069-0.034-0.068
		c0.034-0.239,0.068-0.514,0.103-0.754c0.068-0.481,0.171-0.927,0.274-1.407c0.103-0.412,0.343-0.651,0.687-0.857
		C6.176,7.765,6.587,7.593,7,7.456z M1.299,7.205l0.402-0.402l1.06,1.058l2.522-2.517l0.402,0.401L2.761,8.664L1.299,7.205z
		 M8.439,13.493c-0.102,0.035-0.239,0.035-0.377,0.035C7,13.493,5.936,13.425,4.907,13.253c-0.309-0.034-0.446-0.239-0.412-0.548
		c0.034-0.378,0.103-0.72,0.103-1.098c0-0.138,0.069-0.172,0.171-0.206c0.721-0.206,1.372-0.446,2.058-0.754
		C7.789,10.2,8.646,9.583,9.366,8.828c0.309-0.308,0.583-0.686,0.789-1.063c0.069-0.103,0.138-0.069,0.204-0.035
		c0.071,0.035,0.172,0.069,0.138,0.172c-0.272,1.166-0.616,2.333-1.028,3.465c-0.24,0.651-0.48,1.304-0.755,1.955
		C8.646,13.493,8.646,13.493,8.439,13.493z M9.915,12.533c-0.068,0.274-0.138,0.549-0.206,0.823
		c-0.034,0.103-0.068,0.137-0.172,0.137C9.4,13.528,9.263,13.528,9.16,13.528c-0.138,0-0.138-0.035-0.104-0.138
		c0.138-0.377,0.31-0.754,0.446-1.132c0.034-0.069,0.069-0.104,0.138-0.104C10.019,12.225,9.983,12.121,9.915,12.533z
		 M10.327,13.459c-0.068,0-0.172,0-0.24,0c-0.034,0-0.034-0.034-0.034-0.034c0-0.172,0.034-0.343,0.103-0.479
		c0.104,0.137,0.172,0.308,0.204,0.445C10.359,13.425,10.359,13.459,10.327,13.459z M11.08,13.15
		c-0.034,0.206-0.137,0.274-0.343,0.24c-0.034,0-0.069-0.034-0.069-0.068c-0.103-0.309-0.237-0.617-0.375-0.892
		c-0.034-0.035-0.034-0.069,0-0.104s0.066-0.034,0.103-0.034c0.17,0.034,0.308,0.068,0.444,0.172
		c0.172,0.137,0.275,0.343,0.24,0.549C11.08,13.047,11.08,13.116,11.08,13.15z M12.248,12.808c0,0.206-0.172,0.411-0.344,0.445
		c-0.137,0.034-0.274,0.034-0.378,0.069c-0.103,0.034-0.137,0-0.103-0.104c0.034-0.24,0.034-0.446-0.068-0.651
		c-0.172-0.378-0.481-0.549-0.891-0.583c-0.206-0.035-0.412-0.068-0.618-0.068c-0.138-0.035-0.138-0.035-0.104-0.173
		c0.31-0.822,0.584-1.646,0.822-2.503c0.103-0.378,0.206-0.789,0.309-1.166c0.035-0.103,0.069-0.103,0.138-0.069
		c0.344,0.172,0.584,0.411,0.687,0.823c0.172,0.686,0.274,1.372,0.378,2.06c0.103,0.616,0.172,1.233,0.24,1.885
		C12.248,12.772,12.248,12.772,12.248,12.808z"/>
	<path fill="#3B7EC4" d="M7.068,5.638C7.17,5.673,7.205,5.741,7.239,5.844C7.308,6.085,7.412,6.29,7.583,6.496
		c0.342,0.446,0.925,0.515,1.371,0.172c0.274-0.205,0.412-0.514,0.515-0.823c0.034-0.103,0.068-0.171,0.172-0.206
		c0.24-0.103,0.343-0.309,0.378-0.514c0-0.069,0.034-0.137-0.035-0.137C9.915,4.952,9.847,5.021,9.847,5.089
		C9.813,5.158,9.813,5.261,9.777,5.33C9.743,5.433,9.675,5.467,9.572,5.433c-0.104,0-0.069-0.103-0.069-0.138
		c0.034-0.239,0-0.514-0.068-0.754C9.4,4.472,9.4,4.438,9.297,4.472c-0.206,0.137-0.446,0.24-0.686,0.343
		c-0.24,0.103-0.48,0.136-0.72,0.172c-0.033,0-0.102,0-0.136-0.036C7.72,4.884,7.789,4.85,7.823,4.85
		c0.068-0.068,0.136-0.137,0.171-0.206C7.755,4.712,7.549,4.781,7.273,4.781c-0.068,0-0.068,0.034-0.068,0.103
		c0,0.136,0,0.24,0,0.376c0,0.034,0.034,0.103-0.035,0.137c-0.034,0.035-0.103,0-0.137,0C6.965,5.364,6.965,5.33,6.931,5.261
		s-0.034-0.172-0.068-0.24C6.828,4.952,6.793,4.918,6.725,4.952c-0.068,0-0.068,0.069-0.034,0.137
		C6.725,5.33,6.793,5.535,7.068,5.638z"/>
</g>
</svg>
