<?xml version="1.0" encoding="utf-8"?>
<!-- Generator: Adobe Illustrator 16.0.0, SVG Export Plug-In . SVG Version: 6.00 Build 0)  -->
<!DOCTYPE svg PUBLIC "-//W3C//DTD SVG 1.1//EN" "http://www.w3.org/Graphics/SVG/1.1/DTD/svg11.dtd">
<svg version="1.1" id="Layer_1" xmlns="http://www.w3.org/2000/svg" xmlns:xlink="http://www.w3.org/1999/xlink" x="0px" y="0px"
	 width="481px" height="502px" viewBox="0 0 481 502" enable-background="new 0 0 481 502" xml:space="preserve">
<g>
	<path fill="#3B7EC4" d="M449,12.599H81.8c-8.284,0-15,6.716-15,15v352.2H20.6c-8.284,0-15,6.716-15,15
		c0,53.267,43.334,96.602,96.6,96.602h265.2c53.266,0,96.6-43.335,96.6-96.602v-367.2C464,19.315,457.284,12.599,449,12.599z
		 M434,394.799c0,36.725-29.876,66.602-66.6,66.602c-36.725,0-66.601-29.878-66.601-66.602c0-8.284-6.716-15-15-15h-189v-337.2H434
		V394.799z"/>
	<rect x="245" y="193.699" fill="#3B7EC4" width="122.4" height="35"/>
	<rect x="163.4" y="193.699" fill="#3B7EC4" width="40.8" height="35"/>
	<rect x="245" y="275.299" fill="#3B7EC4" width="122.4" height="35"/>
	<rect x="163.4" y="275.299" fill="#3B7EC4" width="40.8" height="35"/>
	<rect x="245" y="112.099" fill="#3B7EC4" width="122.4" height="35"/>
	<rect x="163.4" y="112.099" fill="#3B7EC4" width="40.8" height="35"/>
</g>
</svg>
