<?xml version="1.0" encoding="utf-8"?>
<!-- Generator: Adobe Illustrator 16.0.0, SVG Export Plug-In . SVG Version: 6.00 Build 0)  -->
<!DOCTYPE svg PUBLIC "-//W3C//DTD SVG 1.1//EN" "http://www.w3.org/Graphics/SVG/1.1/DTD/svg11.dtd">
<svg version="1.1" id="Layer_1" xmlns:sketch="http://www.bohemiancoding.com/sketch/ns"
	 xmlns="http://www.w3.org/2000/svg" xmlns:xlink="http://www.w3.org/1999/xlink" x="0px" y="0px" width="16px" height="16px"
	 viewBox="0 0 16 16" enable-background="new 0 0 16 16" xml:space="preserve">
<title></title>
<circle fill="#3B7EC4" cx="8" cy="8" r="8"/>
<g>
	<g>
		<path fill="#FFFFFF" d="M5.532,6.822C5.606,7.001,5.666,7.134,5.75,7.213c0.388,1.266,1.39,2.143,2.454,2.139
			c1.06-0.004,2.049-0.888,2.422-2.157c0.083-0.079,0.143-0.212,0.214-0.39c0.019-0.045,0.036-0.088,0.049-0.115
			c0.143-0.296,0.094-0.617-0.106-0.773c0-0.01,0-0.02,0-0.028c-0.006-1.572-0.212-3.25-2.601-3.241
			C5.773,2.654,5.578,4.261,5.583,5.903c0,0.01,0,0.02,0,0.03c-0.2,0.158-0.247,0.479-0.102,0.774
			C5.496,6.735,5.513,6.778,5.532,6.822z M10.568,6.535c-0.018,0.038-0.038,0.085-0.058,0.137c-0.029,0.073-0.091,0.223-0.127,0.264
			c-0.04,0.022-0.07,0.061-0.082,0.105C9.984,8.189,9.121,8.994,8.203,8.996C7.281,9,6.405,8.201,6.074,7.056
			C6.061,7.011,6.03,6.973,5.99,6.949c-0.038-0.04-0.1-0.19-0.131-0.265C5.838,6.635,5.818,6.588,5.8,6.551
			c-0.077-0.156-0.054-0.313,0.017-0.35l0.007-0.003c0.039-0.014,0.071-0.042,0.09-0.076l0.417,0.064
			c0.04,0.007,0.079-0.015,0.095-0.053L6.69,5.525c0.298,0.071,1.428,0.327,2.312,0.323C9.277,5.848,9.505,5.822,9.68,5.771
			l0.167,0.403C9.86,6.207,9.894,6.229,9.929,6.229c0.007,0,0.016-0.001,0.023-0.004l0.486-0.137
			c0.019,0.043,0.055,0.078,0.102,0.096l0.007,0.002C10.621,6.222,10.646,6.379,10.568,6.535z M12.59,13.148
			c0,0.098-0.079,0.176-0.177,0.176L4,13.354c-0.098,0-0.177-0.078-0.178-0.176c-0.004-1.143,0.19-2.09,0.579-2.834
			c0.079,0.119,0.162,0.24,0.25,0.363l0.017,0.023l0.02,0.021c0.014,0.014,0.359,0.352,0.899,0.35
			c0.488-0.004,0.958-0.266,1.397-0.785c0.079-0.078,0.128-0.193,0.134-0.314C7.125,9.9,7.102,9.791,7.05,9.674
			c0.353,0.121,0.744,0.186,1.145,0.186c0.894-0.004,1.717-0.322,2.199-0.854c0.057-0.063,0.151-0.076,0.225-0.031
			C11.884,9.748,12.583,11.23,12.59,13.148z M4.938,10.498C3.389,8.685,3.41,6.838,3.41,6.838c0.06-0.99,1.231-1.033,1.417-0.951
			c0.267,0.116,0.331,0.988,0.312,1.114C5.112,7.163,4.507,7.234,4.507,7.234c0.235,0.968,1.019,2.207,1.019,2.207
			C5.763,9.17,6.092,9.082,6.092,9.082c0.646,0.264,0.638,0.982,0.638,0.982C5.724,11.268,5.238,10.848,4.938,10.498z"/>
	</g>
</g>
</svg>
