<?xml version="1.0" encoding="utf-8"?>
<!-- Generator: Adobe Illustrator 16.0.0, SVG Export Plug-In . SVG Version: 6.00 Build 0)  -->
<!DOCTYPE svg PUBLIC "-//W3C//DTD SVG 1.1//EN" "http://www.w3.org/Graphics/SVG/1.1/DTD/svg11.dtd">
<svg version="1.1" id="Layer_1" xmlns:sketch="http://www.bohemiancoding.com/sketch/ns"
	 xmlns="http://www.w3.org/2000/svg" xmlns:xlink="http://www.w3.org/1999/xlink" x="0px" y="0px" width="16px" height="16px"
	 viewBox="0 0 16 16" enable-background="new 0 0 16 16" xml:space="preserve">
<title></title>
<circle fill="#3B7EC4" cx="8" cy="8" r="8"/>
<g>
	<path fill="#FFFFFF" d="M9.778,10.843c0.27,0,0.501-0.026,0.695-0.078v2.183H3.42V5.179l2.106-2.125h4.947v0.715H6.261v2.125H4.116
		v6.357h5.662V10.843L9.778,10.843z M8.657,4.696C9.005,4.542,9.372,4.464,9.76,4.464c0.386,0,0.749,0.074,1.091,0.222
		c0.341,0.148,0.64,0.352,0.898,0.609c0.258,0.256,0.46,0.56,0.608,0.908c0.148,0.349,0.223,0.714,0.223,1.102
		c0,0.387-0.074,0.753-0.223,1.101c-0.148,0.349-0.351,0.648-0.608,0.899c-0.258,0.252-0.558,0.452-0.898,0.601
		c-0.342,0.148-0.705,0.22-1.091,0.22c-0.388,0-0.755-0.071-1.103-0.22C8.309,9.757,8.01,9.557,7.759,9.305
		C7.507,9.054,7.307,8.755,7.16,8.406C7.012,8.059,6.938,7.692,6.938,7.305c0-0.388,0.073-0.753,0.222-1.102
		c0.148-0.347,0.348-0.65,0.599-0.908C8.01,5.038,8.309,4.837,8.657,4.696z M8.928,9.258C9.186,9.36,9.462,9.412,9.76,9.412
		c0.295,0,0.572-0.056,0.831-0.165c0.257-0.109,0.482-0.262,0.676-0.455c0.192-0.192,0.345-0.415,0.453-0.666
		c0.109-0.252,0.164-0.525,0.164-0.822c0-0.296-0.055-0.573-0.164-0.832c-0.108-0.256-0.261-0.482-0.453-0.676
		c-0.193-0.192-0.419-0.344-0.676-0.453c-0.258-0.109-0.536-0.165-0.831-0.165c-0.298,0-0.574,0.055-0.832,0.165
		C8.67,5.452,8.444,5.603,8.251,5.796c-0.193,0.193-0.344,0.42-0.455,0.676C7.687,6.73,7.632,7.008,7.632,7.304
		c0,0.297,0.055,0.57,0.165,0.822C7.906,8.377,8.058,8.6,8.251,8.792C8.444,8.985,8.67,9.14,8.928,9.258z M9.778,6.938h1.43v0.715
		H9.063V5.894h0.716V6.938z"/>
</g>
<rect x="4.86" y="9.059" fill="#FFFFFF" width="2.193" height="0.546"/>
<rect x="4.86" y="10.125" fill="#FFFFFF" width="3.14" height="0.545"/>
<rect x="4.86" y="11.19" fill="#FFFFFF" width="3.911" height="0.546"/>
</svg>
