<?xml version="1.0" encoding="utf-8"?>
<!-- Generator: Adobe Illustrator 16.0.0, SVG Export Plug-In . SVG Version: 6.00 Build 0)  -->
<!DOCTYPE svg PUBLIC "-//W3C//DTD SVG 1.1//EN" "http://www.w3.org/Graphics/SVG/1.1/DTD/svg11.dtd">
<svg version="1.1" id="Layer_1" xmlns:sketch="http://www.bohemiancoding.com/sketch/ns"
	 xmlns="http://www.w3.org/2000/svg" xmlns:xlink="http://www.w3.org/1999/xlink" x="0px" y="0px" width="16px" height="16px"
	 viewBox="0 0 16 16" enable-background="new 0 0 16 16" xml:space="preserve">
<title></title>
<g id="Icons_with_numbers">
	<g id="Group" transform="translate(-48.000000, -432.000000)">
		<path id="Oval_318" fill="#3B7EC4" d="M54.88,443.059V445h2.351v-1.941H54.88z M56,448c-4.418,0-8-3.582-8-8s3.582-8,8-8
			s8,3.582,8,8S60.418,448,56,448z M53.57,435.51c-0.983,0.533-1.507,1.438-1.57,2.713h2.28c0-0.372,0.127-0.73,0.382-1.075
			s0.688-0.517,1.298-0.517c0.621,0,1.048,0.14,1.282,0.42c0.234,0.28,0.352,0.59,0.352,0.93c0,0.295-0.105,0.566-0.314,0.813
			l-0.459,0.396l-0.575,0.383c-0.568,0.376-0.92,0.708-1.057,0.997s-0.221,0.813-0.252,1.568h2.128
			c0.006-0.357,0.041-0.623,0.104-0.793c0.101-0.269,0.304-0.504,0.606-0.705l0.562-0.37c0.567-0.376,0.951-0.685,1.151-0.927
			c0.342-0.397,0.513-0.889,0.513-1.471c0-0.949-0.394-1.666-1.181-2.149c-0.785-0.484-1.772-0.726-2.961-0.726
			C54.953,435,54.19,435.17,53.57,435.51z"/>
	</g>
</g>
</svg>
