<?xml version="1.0" encoding="utf-8"?>
<!-- Generator: Adobe Illustrator 16.0.0, SVG Export Plug-In . SVG Version: 6.00 Build 0)  -->
<!DOCTYPE svg PUBLIC "-//W3C//DTD SVG 1.1//EN" "http://www.w3.org/Graphics/SVG/1.1/DTD/svg11.dtd">
<svg version="1.1" id="Layer_1" xmlns="http://www.w3.org/2000/svg" xmlns:xlink="http://www.w3.org/1999/xlink" x="0px" y="0px"
	 width="537px" height="530px" viewBox="0 0 537 530" enable-background="new 0 0 537 530" xml:space="preserve">
<title></title>
<path fill="#3B7EC4" d="M512.941,63.886c-9.109-4.102-19.775-2.507-27.285,4.08l-34.68,30.855
	c-47.545-55.986-117.291-88.249-190.741-88.23C119.403,10.461,5.131,124.522,5,265.354
	C4.869,406.187,118.931,520.46,259.763,520.591c108.184,0.1,204.657-68.075,240.682-170.085
	c4.648-13.309-2.373-27.865-15.682-32.513c-13.311-4.648-27.865,2.374-32.514,15.683
	c-37.604,106.206-154.182,161.82-260.388,124.218C85.656,420.292,30.043,303.711,67.645,197.506
	C96.523,115.943,173.712,61.469,260.236,61.591c58.942-0.017,114.905,25.912,153,70.89l-42.33,37.485
	c-7.988,7.067-10.736,18.358-6.885,28.305c3.783,9.809,13.201,16.289,23.715,16.32h114.75c14.082,0,25.5-11.417,25.5-25.5v-102
	C527.965,77.072,522.078,67.994,512.941,63.886z"/>
<path fill="#3B7EC4" d="M155.541,185.448c-19.322,24.447-15.169,59.939,9.293,79.277l119.323,94.3
	c24.449,19.327,59.957,15.177,79.279-9.282c19.334-24.464,15.18-59.958-9.279-79.288l-119.334-94.3
	C210.365,156.828,174.87,160.981,155.541,185.448z M321.148,266.961l13.063,10.32c17.658,13.947,20.328,39.965,5.98,58.119
	c-0.893,1.126-1.836,2.174-2.811,3.187c-2.332,1.956-2.922-1.181-2.922-1.181l-0.07-0.034c1.297-11.14,2.467-40.606-16.277-67.641
	l0.105-0.043c0,0-0.682-1.485-0.037-2.216C318.826,266.743,320.207,266.221,321.148,266.961z M229.804,187.833l20.455,16.162
	c0.408,0.304,0.84,0.564,1.244,0.885l25.522,20.166l-52.253,68.504l-48.318-38.193c-18.649-14.733-21.817-41.802-7.083-60.441
	C184.106,176.267,211.166,173.101,229.804,187.833z"/>
</svg>
